<svg xmlns="http://www.w3.org/2000/svg" width="273" height="290" fill="none" viewBox="0 0 273 290">
  <path fill="#22C55E" d="M59.874 262.923c-9.333 7.452-30.726 15.279-43.858 23.48-3.96 2.474-9.11 4.224-12.458.969-.885-.86-1.721-1.921-2.509-3.181C.308 283.004 0 281.608 0 280.209c0-29.964 6.072-65.212 18.215-105.743 9.305-42.582 38.639-70.981 88.002-116.717-8.76-8.075-23.042-18.584-42.847-31.529-5.593-3.656-8.267-10.471-6.55-16.929C58.608 2.574 64.725-1.716 71.255.663 84.38 5.444 105.97 16.43 136.023 33.62h.237C166.314 16.43 187.903 5.444 201.029.663c6.531-2.38 12.648 1.911 14.434 8.628 1.717 6.457-.957 13.273-6.55 16.93-19.805 12.944-34.087 23.453-42.846 31.528 49.363 45.736 78.696 74.135 88.001 116.717 12.144 40.531 18.216 75.779 18.216 105.743 0 1.399-.308 2.795-1.05 3.982-.787 1.26-1.624 2.321-2.509 3.181-3.348 3.255-8.497 1.505-12.458-.969-13.132-8.201-34.524-16.028-43.857-23.48-19.202-15.333-25.521-40.048-29.766-64.25-9.175-51.116-18.929-63.921-42.96-103.104-1.604-2.615-5.446-2.595-7.029.033-23.403 38.832-34.293 50.922-43.015 103.071-4.245 24.202-10.565 48.917-29.766 64.25Z"/>
</svg>
